# xmcd
#
# Track frame offsets: 
#        150
#        13478
#        28178
#        39716
#        57969
#        68432
#        84040
#        96912
#        115498
#        130882
#        146424
#        158633
#        185150
#        202576
#        215122
#        229797
#        241150
#        253202
#        269166
#        282302
#
# Disc length: 4027 seconds
#
# Revision: 0
# Processed by: cddbd v1.5.2PL0 Copyright (c) Steve Scherf et al.
# Submitted via: ExactAudioCopy v1.0b6
#
DISCID=2a0fb914
DTITLE=Daniel O'Donnell - Daniel O'Donnell The Ultimate Collection - D
DTITLE=isc 2
DYEAR=2011
DGENRE=Country
TTITLE0=Whatever Happened To Old ashioned Love
TTITLE1=Peace In The Valley
TTITLE2=My Shoes Keep Walking Back To You
TTITLE3=Wind Beneath My Wings
TTITLE4=I'm Going To Be A Country Boy Again
TTITLE5=Take Good Care Of Her
TTITLE6=Can You Feel The Love
TTITLE7=Moon Over Ireland
TTITLE8=Flying With Angels
TTITLE9=Don't Forget To Remember
TTITLE10=Dream Lover
TTITLE11=Song Fo The Mira
TTITLE12=Can't Hold The Years Back
TTITLE13=Only This Moment Is Mine
TTITLE14=Marianne
TTITLE15=oetry In Motion
TTITLE16=Make The World Go Away
TTITLE17=Love Is Everything
TTITLE18=Here At The Grand Ole Opry (Live)
TTITLE19=How Great Thou Art
EXTD=
EXTT0=
EXTT1=
EXTT2=
EXTT3=
EXTT4=
EXTT5=
EXTT6=
EXTT7=
EXTT8=
EXTT9=
EXTT10=
EXTT11=
EXTT12=
EXTT13=
EXTT14=
EXTT15=
EXTT16=
EXTT17=
EXTT18=
EXTT19=
PLAYORDER=
